<svg width="161" height="50" viewBox="0 0 161 50" fill="none" xmlns="http://www.w3.org/2000/svg">
<path d="M66.1287 20V0.399999H69.9087V16.556H78.5887V20H66.1287ZM92.9883 20L91.7843 15.492H84.0563L82.8523 20H79.0163L84.2803 0.399999H91.6163L96.8243 20H92.9883ZM85.0363 11.852H90.8043L87.9203 1.1L85.0363 11.852ZM2.60914 48V28.4H10.9251C14.5651 28.4 16.8611 30.836 16.8611 34.168C16.8611 37.584 14.5651 39.992 10.9251 39.992H6.33314V48H2.60914ZM6.33314 36.492H10.2251C12.0451 36.492 12.9411 35.904 12.9411 34.196C12.9411 32.544 12.0451 31.9 10.2251 31.9H6.33314V36.492ZM27.3865 48.252C22.4585 48.252 19.0985 45.228 19.0985 39.88V36.52C19.0985 31.172 22.4585 28.148 27.3865 28.148C32.3145 28.148 35.6745 31.172 35.6745 36.52V39.88C35.6745 45.228 32.3145 48.252 27.3865 48.252ZM22.8785 39.88C22.8785 43.072 24.5865 44.752 27.3865 44.752C30.1865 44.752 31.8945 43.072 31.8945 39.88V36.52C31.8945 33.328 30.1865 31.788 27.3865 31.788C24.5865 31.788 22.8785 33.328 22.8785 36.52V39.88ZM39.031 48V28.4H52.191V31.9H42.811V36.184H51.323V39.6H42.811V44.5H52.191V48H39.031ZM44.435 26.384L45.891 22.016H49.083L47.235 26.384H44.435ZM59.4106 48V31.9H53.7266V28.4H68.9026V31.9H63.1906V48H59.4106ZM83.3301 48V39.768H75.3501V48H71.5701V28.4H75.3501V36.128H83.3301V28.4H87.1101V48H83.3301ZM91.5857 48V28.4H104.746V31.9H95.3657V36.184H103.878V39.6H95.3657V44.5H104.746V48H91.5857ZM95.6177 22.016H98.8097L100.266 26.384H97.4657L95.6177 22.016ZM115.269 48.252C110.341 48.252 106.981 45.228 106.981 39.88V36.52C106.981 31.172 110.341 28.148 115.269 28.148C120.197 28.148 123.557 31.172 123.557 36.52V39.88C123.557 41.672 123.165 43.212 122.493 44.444L123.557 45.368V49.484L120.365 46.796C119.021 47.748 117.257 48.252 115.269 48.252ZM110.761 39.88C110.761 43.072 112.469 44.752 115.269 44.752C116.081 44.752 116.809 44.612 117.425 44.332L113.197 40.776H118.181L119.497 41.896C119.693 41.308 119.777 40.636 119.777 39.88V36.52C119.777 33.328 118.069 31.788 115.269 31.788C112.469 31.788 110.761 33.328 110.761 36.52V39.88ZM134.362 48.252C129.77 48.252 126.634 45.452 126.634 40.944V28.4H130.414V40.888C130.414 42.96 131.282 44.752 134.362 44.752C137.498 44.752 138.366 42.96 138.366 40.888V28.4H142.146V40.944C142.146 45.452 139.038 48.252 134.362 48.252ZM146.355 48V28.4H159.515V31.9H150.135V36.184H158.647V39.6H150.135V44.5H159.515V48H146.355Z" fill="black"/>
</svg>
